<svg xmlns="http://www.w3.org/2000/svg" viewBox="0 0 74.38 18.31"><defs><style>.cls-1{fill:#fff;}</style></defs><g id="Layer_2" data-name="Layer 2"><g id="Layer_1-2" data-name="Layer 1"><path class="cls-1" d="M1.48,3.38h4.1V.13h.88v8H5.58V4.22H1.48V8.13H.59v-8h.89Z"/><path class="cls-1" d="M12.08,1H8.82V3.35H12v.84H8.82v3.1h3.26v.84H7.93v-8h4.15Z"/><path class="cls-1" d="M14,.13V7.29h2.21v.84H13.12v-8Z"/><path class="cls-1" d="M17.7.13V7.29h2.21v.84h-3.1v-8Z"/><path class="cls-1" d="M19.67,4.14a4.16,4.16,0,0,1,8.32,0,4.16,4.16,0,0,1-8.32,0Zm.91,0a3.25,3.25,0,1,0,6.5,0,3.25,3.25,0,1,0-6.5,0Z"/><path class="cls-1" d="M4.27,13.48h4.5v.18a4.68,4.68,0,0,1-1,3.34,4.61,4.61,0,0,1-3.39,1.31A4.28,4.28,0,0,1,1,17a4,4,0,0,1-1-2.84,4,4,0,0,1,1.1-2.94A4.55,4.55,0,0,1,4.46,10a4.73,4.73,0,0,1,2.35.57A3.65,3.65,0,0,1,8.35,12L5.64,13a1.24,1.24,0,0,0-1.11-.61,1.5,1.5,0,0,0-1,.37,2,2,0,0,0-.58,1.51,2.06,2.06,0,0,0,.52,1.43,1.37,1.37,0,0,0,1,.36,1.2,1.2,0,0,0,1.19-.69H4.27Z"/><path class="cls-1" d="M9.11,18.13v-8H14.5v2.2H12v.74h2.27v2.1H12v.77h2.57v2.19Z"/><path class="cls-1" d="M14.93,18.13v-8H17.7l1.86,3a8.53,8.53,0,0,1,.75,1.42h.09a9.37,9.37,0,0,1-.26-1.9V10.13h2.79v8H20.14l-2-3.15a11.45,11.45,0,0,1-.55-1.05h-.08a10.61,10.61,0,0,1,.18,1.48v2.72Z"/><path class="cls-1" d="M23.64,18.13v-8H29v2.2h-2.5v.74h2.27v2.1H26.54v.77h2.57v2.19Z"/><path class="cls-1" d="M29.46,18.13v-8h3.61a3.21,3.21,0,0,1,2.45.83,2.68,2.68,0,0,1,.75,2,2.13,2.13,0,0,1-.44,1.42,2,2,0,0,1-1.11.64v.07a1.15,1.15,0,0,1,.42.37l1.8,2.7H33.6l-1.15-2.34a.84.84,0,0,1-.11-.25l-.05,0v2.57Zm2.83-4.44h.34a.94.94,0,0,0,.61-.18.64.64,0,0,0,.2-.49.76.76,0,0,0-.15-.48.65.65,0,0,0-.5-.21h-.5Z"/><path class="cls-1" d="M39.57,17.14l-.21,1H36.29l2.77-8h3.21l2.86,8H42l-.26-1Zm1.18-4.33h-.11a4.24,4.24,0,0,1-.13.9l-.4,1.53h1.17l-.37-1.53A8.6,8.6,0,0,1,40.75,12.81Z"/><path class="cls-1" d="M45.59,18.13V12.66L44,12.73v-2.6h6.11v2.6l-1.63-.07v5.47Z"/><path class="cls-1" d="M50.18,18.13v-8h3.61a3.2,3.2,0,0,1,2.45.83,2.65,2.65,0,0,1,.76,2,2.13,2.13,0,0,1-.45,1.42,1.92,1.92,0,0,1-1.1.64v.07a1.34,1.34,0,0,1,.42.37l1.8,2.7H54.32l-1.15-2.34a1.22,1.22,0,0,1-.11-.25l-.05,0v2.57ZM53,13.69h.34a.92.92,0,0,0,.61-.18.61.61,0,0,0,.2-.49.71.71,0,0,0-.15-.48.63.63,0,0,0-.49-.21H53Z"/><path class="cls-1" d="M64.92,17a5,5,0,0,1-6.65,0,4.1,4.1,0,0,1-1.11-2.9,4.06,4.06,0,0,1,1.11-2.89,4.93,4.93,0,0,1,6.65,0A4.06,4.06,0,0,1,66,14.13,4.1,4.1,0,0,1,64.92,17Zm-4.37-4.09a1.79,1.79,0,0,0-.46,1.2,1.67,1.67,0,0,0,.46,1.18,1.54,1.54,0,0,0,2.09,0,1.67,1.67,0,0,0,.45-1.18,1.64,1.64,0,0,0-.45-1.2,1.46,1.46,0,0,0-1-.41A1.36,1.36,0,0,0,60.55,12.94Z"/><path class="cls-1" d="M66.38,18.13v-8h2.77l1.86,3a9.34,9.34,0,0,1,.76,1.42h.08a9.38,9.38,0,0,1-.25-1.9V10.13h2.78v8H71.6l-2-3.15a9.41,9.41,0,0,1-.55-1.05H69a9.29,9.29,0,0,1,.18,1.48v2.72Z"/></g></g></svg>