<svg width="195" height="22" viewBox="0 0 195 22" fill="none" xmlns="http://www.w3.org/2000/svg">
<path fill-rule="evenodd" clip-rule="evenodd" d="M169.601 18.5413C164.626 22.967 157.162 22.967 152.186 18.5413C150.248 16.4986 149.227 13.7488 149.279 10.9467C149.201 8.14453 150.248 5.42096 152.186 3.3783C157.11 -1.1261 164.678 -1.1261 169.601 3.3783C171.513 5.44714 172.535 8.1969 172.43 11.0253C172.482 13.8012 171.487 16.4986 169.601 18.5413ZM158.157 7.83026C157.372 8.69452 156.953 9.82056 156.953 10.9728C156.953 12.1251 157.372 13.225 158.157 14.063C159.702 15.5034 162.085 15.5034 163.631 14.063C164.416 13.225 164.835 12.1251 164.809 10.9728C164.861 9.82056 164.442 8.66827 163.631 7.83026C162.923 7.14941 161.981 6.75653 161.012 6.75653C159.938 6.67798 158.89 7.12317 158.157 7.90881V7.83026Z" fill="white"/>
<path d="M22.9751 9.323H11.1904V14.2726H14.8306C14.2807 15.4772 13.0237 16.1843 11.7142 16.0796C10.7453 16.132 9.80251 15.7915 9.09535 15.1368C8.17885 14.1155 7.68129 12.7798 7.73366 11.3919C7.65505 9.92535 8.20497 8.48499 9.25258 7.43744C9.98586 6.80896 10.9024 6.46851 11.8714 6.46851C13.0498 6.41614 14.1759 7.04462 14.7782 8.06598L21.8753 5.44714C20.9325 3.82349 19.5183 2.54028 17.8423 1.70221C15.9567 0.680908 13.8355 0.157104 11.688 0.209534C8.44069 0.0261841 5.27187 1.17847 2.88881 3.40448C0.924699 5.47333 -0.0966634 8.24927 0.00807294 11.1038C-0.0966634 13.8274 0.819963 16.4986 2.62697 18.5413C4.93153 20.9506 8.1526 22.2076 11.4785 21.9719C14.7782 22.1028 17.9994 20.8458 20.3563 18.5413C22.3205 16.0796 23.2632 12.937 22.9751 9.79437V9.323Z" fill="white"/>
<path d="M23.8656 0.549988V21.5005H38.1644V15.7653H31.434V13.7488H37.3788V8.24933H31.434V6.3114H37.9811V0.549988H23.8656Z" fill="white"/>
<path d="M39.1071 21.5005V0.549988H46.3612L51.2322 8.40643C51.9917 9.5849 52.6726 10.8158 53.1963 12.1252H53.432C53.0392 10.5015 52.8035 8.82544 52.7511 7.14941V0.549988H60.0576V21.5005H52.7511L47.5134 13.2513C46.9898 12.3609 46.5183 11.4443 46.0731 10.5015H45.8637C46.0994 11.7847 46.2565 13.0679 46.335 14.3774V21.5005H39.1071Z" fill="white"/>
<path d="M61.917 0.549988V21.5005H76.242V15.7653H69.5116V13.7488H75.3516V8.24933H69.4069V6.3114H75.9539V0.549988H61.917Z" fill="white"/>
<path fill-rule="evenodd" clip-rule="evenodd" d="M77.1586 0.549927H86.6126C88.9695 0.340393 91.3002 1.12604 93.0287 2.72351C94.3904 4.11151 95.0975 6.02325 94.9928 7.96118C95.0713 9.29675 94.6524 10.6062 93.8405 11.6799C93.0811 12.5441 92.0597 13.1202 90.9336 13.356V13.5392C91.3788 13.775 91.7454 14.0892 92.0335 14.5082L95.6151 19.8807L102.299 0.57605H110.706L118.196 21.5266H109.999L109.318 18.9078H103.635L103.085 21.5266H96.7124L96.7473 21.579H88.0005L84.9889 15.451C84.8579 15.2415 84.7532 15.032 84.7008 14.7963H84.5698V21.5267H77.1586V0.549927ZM84.5698 9.84674H85.4602C86.0364 9.87292 86.5863 9.71576 87.0578 9.37531C87.3982 9.03491 87.6077 8.56348 87.5814 8.0921C87.5814 7.64691 87.4506 7.20172 87.1887 6.83508C86.8483 6.46844 86.3768 6.25891 85.8793 6.2851H84.5698V9.84674ZM106.437 7.5683H106.725C106.83 8.35394 106.961 9.13959 107.144 9.92523L108.113 13.9321H105.049L106.097 9.92523C106.306 9.16577 106.411 8.35394 106.437 7.5683Z" fill="white"/>
<path fill-rule="evenodd" clip-rule="evenodd" d="M119.4 21.5005V7.1756L115.236 7.35895V0.549988L140.454 0.549927C142.811 0.340393 145.142 1.12604 146.87 2.72351C148.232 4.11151 148.965 6.02325 148.86 7.96118C148.939 9.29675 148.52 10.6324 147.682 11.6799C146.949 12.5441 145.927 13.1464 144.801 13.356V13.5392C145.22 13.775 145.613 14.1154 145.901 14.5082L150.615 21.579H141.842L138.83 15.451C138.699 15.2415 138.621 15.032 138.542 14.7963H138.411V21.5267H131V7.34875L126.969 7.1756V21.5005H119.4ZM139.275 9.84674H138.385V6.2851H139.721C140.218 6.25891 140.69 6.46844 141.004 6.83508C141.292 7.20172 141.423 7.64691 141.397 8.0921C141.423 8.58966 141.24 9.0611 140.873 9.37531C140.402 9.71576 139.852 9.87292 139.275 9.84674Z" fill="white"/>
<path d="M180.679 0.549988H173.425V21.5005H180.758V14.3774C180.705 13.0679 180.548 11.7847 180.286 10.5015H180.417C180.836 11.4443 181.308 12.3609 181.858 13.2513L187.095 21.5005H194.376V0.549988H187.095V7.14941C187.148 8.82544 187.357 10.5015 187.75 12.1252H187.54C186.99 10.842 186.31 9.5849 185.55 8.40643L180.679 0.549988Z" fill="white"/>
</svg>
